<?xml version="1.0" encoding="UTF-8" standalone="no"?>
<!-- Created with Inkscape (http://www.inkscape.org/) -->

<svg
   width="1200"
   height="675"
   viewBox="0 0 317.49999 178.59375"
   version="1.1"
   id="svg1"
   inkscape:version="1.3.2 (091e20e, 2023-11-25)"
   sodipodi:docname="meetup_1200x675.svg"
   xmlns:inkscape="http://www.inkscape.org/namespaces/inkscape"
   xmlns:sodipodi="http://sodipodi.sourceforge.net/DTD/sodipodi-0.dtd"
   xmlns="http://www.w3.org/2000/svg"
   xmlns:svg="http://www.w3.org/2000/svg">
  <sodipodi:namedview
     id="namedview1"
     pagecolor="#ffffff"
     bordercolor="#000000"
     borderopacity="0.25"
     inkscape:showpageshadow="2"
     inkscape:pageopacity="0.0"
     inkscape:pagecheckerboard="0"
     inkscape:deskcolor="#d1d1d1"
     inkscape:document-units="mm"
     inkscape:zoom="0.84096521"
     inkscape:cx="585.04204"
     inkscape:cy="561.25984"
     inkscape:window-width="1280"
     inkscape:window-height="1387"
     inkscape:window-x="2560"
     inkscape:window-y="25"
     inkscape:window-maximized="0"
     inkscape:current-layer="layer1" />
  <defs
     id="defs1" />
  <g
     inkscape:label="Layer 1"
     inkscape:groupmode="layer"
     id="layer1">
    <path
       d="M 0.44361959,101.50828 H 317.64076 v 17.75065 H 0.44361959 Z m 0,26.62597 H 317.64076 V 145.8849 H 0.44361959 Z"
       fill="#e81b39"
       id="path2-9"
       style="stroke-width:0.118643" />
    <g
       id="d-1"
       transform="matrix(0.23330207,0,0,0.23330207,111.76277,86.62042)"
       fill="#e81b39">
      <g
         id="b-9">
        <path
           id="a-0"
           transform="rotate(18,0,-40)"
           d="M 0,-40 V 0 h 20 z" />
        <path
           id="use2-6"
           d="M 0,-40 12.36068,-1.9577393 -6.6604506,4.2226005 Z" />
      </g>
      <g
         id="c-1">
        <g
           id="use3-7"
           transform="rotate(72)">
          <path
             id="path1"
             transform="rotate(18,0,-40)"
             d="M 0,-40 V 0 h 20 z" />
          <path
             id="path2"
             d="M 0,-40 12.36068,-1.9577393 -6.6604506,4.2226005 Z" />
        </g>
        <g
           id="use4-3"
           transform="rotate(-144)">
          <path
             id="path3"
             transform="rotate(18,0,-40)"
             d="M 0,-40 V 0 h 20 z" />
          <path
             id="path4"
             d="M 0,-40 12.36068,-1.9577393 -6.6604506,4.2226005 Z" />
        </g>
      </g>
      <g
         id="use5-8"
         transform="rotate(72)">
        <g
           id="g6"
           transform="rotate(72)">
          <path
             id="path5"
             transform="rotate(18,0,-40)"
             d="M 0,-40 V 0 h 20 z" />
          <path
             id="path6"
             d="M 0,-40 12.36068,-1.9577393 -6.6604506,4.2226005 Z" />
        </g>
        <g
           id="g8"
           transform="rotate(-144)">
          <path
             id="path7"
             transform="rotate(18,0,-40)"
             d="M 0,-40 V 0 h 20 z" />
          <path
             id="path8"
             d="M 0,-40 12.36068,-1.9577393 -6.6604506,4.2226005 Z" />
        </g>
      </g>
    </g>
    <g
       id="use6-7"
       transform="matrix(0.23330207,0,0,0.23330207,160.57705,86.62042)"
       fill="#e81b39">
      <g
         id="g10">
        <path
           id="path9"
           transform="rotate(18,0,-40)"
           d="M 0,-40 V 0 h 20 z" />
        <path
           id="path10"
           d="M 0,-40 12.36068,-1.9577393 -6.6604506,4.2226005 Z" />
      </g>
      <g
         id="g15">
        <g
           id="g12"
           transform="rotate(72)">
          <path
             id="path11"
             transform="rotate(18,0,-40)"
             d="M 0,-40 V 0 h 20 z" />
          <path
             id="path12"
             d="M 0,-40 12.36068,-1.9577393 -6.6604506,4.2226005 Z" />
        </g>
        <g
           id="g14"
           transform="rotate(-144)">
          <path
             id="path13"
             transform="rotate(18,0,-40)"
             d="M 0,-40 V 0 h 20 z" />
          <path
             id="path14"
             d="M 0,-40 12.36068,-1.9577393 -6.6604506,4.2226005 Z" />
        </g>
      </g>
      <g
         id="g19"
         transform="rotate(72)">
        <g
           id="g16"
           transform="rotate(72)">
          <path
             id="path15"
             transform="rotate(18,0,-40)"
             d="M 0,-40 V 0 h 20 z" />
          <path
             id="path16"
             d="M 0,-40 12.36068,-1.9577393 -6.6604506,4.2226005 Z" />
        </g>
        <g
           id="g18"
           transform="rotate(-144)">
          <path
             id="path17"
             transform="rotate(18,0,-40)"
             d="M 0,-40 V 0 h 20 z" />
          <path
             id="path18"
             d="M 0,-40 12.36068,-1.9577393 -6.6604506,4.2226005 Z" />
        </g>
      </g>
    </g>
    <g
       id="use7-0"
       transform="matrix(0.23330207,0,0,0.23330207,209.39131,86.62042)"
       fill="#e81b39">
      <g
         id="g21">
        <path
           id="path20"
           transform="rotate(18,0,-40)"
           d="M 0,-40 V 0 h 20 z" />
        <path
           id="path21"
           d="M 0,-40 12.36068,-1.9577393 -6.6604506,4.2226005 Z" />
      </g>
      <g
         id="g26">
        <g
           id="g23"
           transform="rotate(72)">
          <path
             id="path22"
             transform="rotate(18,0,-40)"
             d="M 0,-40 V 0 h 20 z" />
          <path
             id="path23"
             d="M 0,-40 12.36068,-1.9577393 -6.6604506,4.2226005 Z" />
        </g>
        <g
           id="g25"
           transform="rotate(-144)">
          <path
             id="path24"
             transform="rotate(18,0,-40)"
             d="M 0,-40 V 0 h 20 z" />
          <path
             id="path25"
             d="M 0,-40 12.36068,-1.9577393 -6.6604506,4.2226005 Z" />
        </g>
      </g>
      <g
         id="g30"
         transform="rotate(72)">
        <g
           id="g27"
           transform="rotate(72)">
          <path
             id="path26"
             transform="rotate(18,0,-40)"
             d="M 0,-40 V 0 h 20 z" />
          <path
             id="path27"
             d="M 0,-40 12.36068,-1.9577393 -6.6604506,4.2226005 Z" />
        </g>
        <g
           id="g29"
           transform="rotate(-144)">
          <path
             id="path28"
             transform="rotate(18,0,-40)"
             d="M 0,-40 V 0 h 20 z" />
          <path
             id="path29"
             d="M 0,-40 12.36068,-1.9577393 -6.6604506,4.2226005 Z" />
        </g>
      </g>
    </g>
    <path
       d="M 55.355254,60.213326 44.745923,28.744965 h 3.416566 l 9.935007,29.625214 h -1.70828 L 66.638909,28.744965 h 3.056928 L 79.81067,58.370179 H 78.192292 L 88.21721,28.744965 h 3.1918 L 80.799673,60.213326 H 77.293198 L 67.627913,32.11658 h 0.899101 l -9.710242,28.096746 z m 56.576546,0.269729 q -3.59638,0 -6.65332,-1.168824 -3.01196,-1.213781 -5.2597,-3.371608 -2.202788,-2.157834 -3.461519,-5.079895 -1.213781,-2.922061 -1.213781,-6.383579 0,-3.461518 1.213781,-6.383586 1.258731,-2.922061 3.506469,-5.079888 2.24774,-2.157835 5.25971,-3.326658 3.05694,-1.213781 6.65332,-1.213781 3.59638,0 6.5634,1.123872 3.01197,1.123871 5.12484,3.416567 l -2.06792,2.112876 q -1.978,-1.978016 -4.36062,-2.832152 -2.38259,-0.854144 -5.12484,-0.854144 -2.92207,0 -5.39458,0.989004 -2.42756,0.944054 -4.2707,2.742243 -1.79819,1.753237 -2.832158,4.135843 -0.989002,2.337652 -0.989002,5.169804 0,2.7872 0.989002,5.169804 1.033968,2.382604 2.832158,4.180794 1.84314,1.753238 4.2707,2.742242 2.47251,0.944053 5.34962,0.944053 2.69729,0 5.0799,-0.809186 2.42757,-0.809191 4.45052,-2.742248 l 1.88811,2.517472 q -2.24775,1.978008 -5.25972,3.01197 -3.01197,0.989005 -6.29367,0.989005 z m 8.3616,-4.405571 V 44.479149 h 3.19179 V 56.48208 Z m 9.15525,4.135842 12.90203,-17.442457 v 2.562423 l -12.1378,-16.588327 h 3.82116 l 10.20474,13.846078 -1.48351,0.04494 10.20475,-13.891036 h 3.59638 l -12.00294,16.36355 v -2.337646 l 12.85708,17.442457 h -3.86611 L 142.66536,45.423181 h 1.3936 L 133.2698,60.213306 Z m 47.32188,0.269729 q -3.55143,0 -6.5634,-1.168824 -3.01198,-1.213781 -5.21476,-3.371608 -2.20278,-2.157834 -3.46153,-5.079895 -1.21377,-2.922061 -1.21377,-6.383579 0,-3.461518 1.21377,-6.383586 1.25875,-2.922061 3.46153,-5.079888 2.24774,-2.157835 5.25971,-3.326658 3.01197,-1.213781 6.56341,-1.213781 3.41656,0 6.42854,1.168829 3.01197,1.123866 5.07989,3.416561 l -2.11289,2.112876 q -1.93305,-1.978008 -4.2707,-2.832152 -2.33765,-0.899095 -5.03494,-0.899095 -2.83214,0 -5.2597,0.989004 -2.42757,0.944054 -4.22576,2.742243 -1.79819,1.753237 -2.83215,4.135843 -0.989,2.337652 -0.989,5.169804 0,2.832152 0.989,5.214756 1.03396,2.337652 2.83215,4.135842 1.79819,1.753238 4.22576,2.742242 2.42756,0.944053 5.2597,0.944053 2.69729,0 5.03494,-0.899095 2.33765,-0.899101 4.2707,-2.87711 l 2.11289,2.112876 q -2.06792,2.292695 -5.07989,3.461518 -3.01198,1.168824 -6.4735,1.168824 z m 32.29135,-0.269729 V 28.744965 H 221.874 q 5.03493,0 8.81113,2.022966 3.82116,1.978014 5.93405,5.529442 2.11286,3.551429 2.11286,8.181776 0,4.63034 -2.11286,8.181775 -2.11289,3.551427 -5.93405,5.574394 -3.7762,1.978008 -8.81113,1.978008 z m 3.32665,-2.877103 h 9.30564 q 4.1808,0 7.23772,-1.618377 3.10189,-1.663322 4.81018,-4.540432 1.70827,-2.922061 1.70827,-6.698265 0,-3.821156 -1.70827,-6.698267 -1.70829,-2.877109 -4.81018,-4.49548 -3.05692,-1.663328 -7.23772,-1.663328 h -9.30564 z m 48.40077,3.146832 q -3.55142,0 -6.56339,-1.168824 -3.01197,-1.213781 -5.21477,-3.371608 -2.20278,-2.157834 -3.46151,-5.079895 -1.21378,-2.922061 -1.21378,-6.383579 0,-3.461518 1.21378,-6.383586 1.25873,-2.922061 3.46151,-5.079888 2.24775,-2.157835 5.25972,-3.326658 3.01197,-1.213781 6.5634,-1.213781 3.41657,0 6.42854,1.168829 3.01197,1.123866 5.07989,3.416561 l -2.11288,2.112876 q -1.93306,-1.978008 -4.27071,-2.832152 -2.33764,-0.899095 -5.03492,-0.899095 -2.83216,0 -5.25972,0.989004 -2.42756,0.944054 -4.22575,2.742243 -1.79819,1.753237 -2.83216,4.135843 -0.989,2.337652 -0.989,5.169804 0,2.832152 0.989,5.214756 1.03397,2.337652 2.83216,4.135842 1.79819,1.753238 4.22575,2.742242 2.42756,0.944053 5.25972,0.944053 2.69728,0 5.03492,-0.899095 2.33765,-0.899101 4.27071,-2.87711 l 2.11288,2.112876 q -2.06792,2.292695 -5.07989,3.461518 -3.01197,1.168824 -6.4735,1.168824 z"
       id="text1-3"
       style="font-size:72.6251px;font-family:Montserrat;-inkscape-font-specification:Montserrat;letter-spacing:1.5px;white-space:pre;fill:#003380;stroke-width:0"
       aria-label="WGXC DC" />
    <path
       d="M 98.992807,56.685664 153.68591,0.1771633 247.52567,93.653843 180.7849,159.66845 l 3.30073,4.0929 -15.97553,14.65524 a 15.711476,15.711476 0 0 1 -1.45232,-11.48654 c 0,0 -0.19805,-5.64425 -3.03668,-5.41319 0,0 3.72983,-19.80439 3.49878,-21.75182 a 45.120982,45.120982 0 0 0 3.30073,-13.20292 c 0,0 -6.60146,-6.60146 -7.09657,-10.79339 0,0 -1.45232,-11.35451 -11.18948,-9.30805 0,0 -1.15525,-0.33008 -1.51833,2.93765 0,0 -3.06968,5.71026 -3.99389,-2.83863 0,0 0.85819,-1.74939 -3.30073,-2.57457 0,0 -5.71026,-6.007331 -5.21515,-8.71393 0.49511,-2.706598 0.33007,-0.561124 0.33007,-0.561124 0,0 1.65037,-0.462102 -0.9242,-3.762832 0,0 -2.44254,-3.993884 0,-5.01711 0,0 2.93765,-3.30073 -6.3044,-2.838628 0,0 -7.85573,0 -7.95476,-0.759168 A 5.8422925,5.8422925 0 0 0 118.46711,79.98882 45.913157,45.913157 0 0 1 111.33754,73.61841 85.224854,85.224854 0 0 0 98.992807,56.685664 Z"
       id="path1-4"
       style="fill:#000000;fill-opacity:0.160526;stroke-width:3.30073" />
  </g>
</svg>
