<?xml version="1.0" encoding="UTF-8"?>
<svg id="Layer_2" data-name="Layer 2" xmlns="http://www.w3.org/2000/svg" viewBox="0 0 348.86 488.38">
  <g id="Layer_1-2" data-name="Layer 1">
    <path d="M0,244C0,92.86,87.14,0,209.58,0c56.41,0,100.53,27.27,128.05,57.22l-31.81,35.12c-24.59-26.4-56.11-43.38-96.24-43.38-92.25,0-152.13,74.27-152.13,193.79s59.88,196.66,151.75,196.66c44,0,77.58-18.85,107.85-52.8l31.81,33.68c-36.51,42.87-82.49,68.08-144.84,68.08C87.77,488.38,0,397.01,0,244Z" style="fill: #000; stroke-width: 0px;"/>
    <g>
      <path d="M168.96,230.08l-33.03-99.27c-1.86-5.57-3.31-10.08-4.36-13.54-1.05-3.46-1.76-6.43-2.13-8.91-1.98.12-3.84.19-5.57.19s-3.46.06-5.2.19v-10.21h48.24v8.16c-6.31.25-10.3,1.61-11.97,4.08-1.67,2.48-1.58,7.18.28,14.1,2.1,7.79,4.27,15.03,6.49,21.71s4.45,13.73,6.68,21.15c1.48,5.07,3,9.8,4.55,14.19,1.55,4.39,3.12,9.49,4.73,15.31h.19c.62-1.98,1.33-4.33,2.13-7.05.8-2.72,1.64-5.53,2.5-8.44.86-2.91,1.67-5.57,2.41-7.98s1.3-4.24,1.67-5.47c2.97-9.4,5.91-18.62,8.81-27.65,2.91-9.03,5.54-17.19,7.89-24.49,2.35-7.3,4.14-13.23,5.38-17.81h9.65c1.24,4.58,2.88,9.93,4.92,16.05s4.11,12.43,6.22,18.93c2.1,6.49,4.14,12.74,6.12,18.74,1.98,6,3.65,11.23,5.01,15.68,1.61,5.07,3.25,10.18,4.92,15.31,1.67,5.13,3.18,10.42,4.55,15.86h.37c1.11-3.71,2.32-7.64,3.62-11.78,1.3-4.14,2.57-8.38,3.8-12.71,2.47-7.17,4.55-13.36,6.22-18.55s3.06-9.71,4.17-13.54c1.11-3.83,2.13-7.3,3.06-10.39.93-3.09,1.88-6.12,2.88-9.09.74-2.35,1.61-4.85,2.6-7.51.99-2.66,2.23-5.04,3.71-7.14-2.35.12-4.86.22-7.51.28-2.66.06-5.04.16-7.14.28v-10.21h38.97v8.16c-3.71.37-6.77,1.24-9.18,2.6-2.41,1.36-4.55,3.74-6.4,7.14-1.86,3.4-3.96,8.44-6.31,15.12-5.44,16.7-10.79,33.21-16.05,49.54-5.26,16.33-10.67,32.66-16.24,48.98h-9.28l-25.98-75.89c-1.36-3.71-2.57-7.39-3.62-11.04-1.05-3.65-2.07-7.2-3.06-10.67-.87,3.46-1.79,6.9-2.78,10.3-.99,3.4-2.04,6.84-3.15,10.3l-24.68,77h-9.09Z" style="fill: #30f; stroke-width: 0px;"/>
      <g>
        <path d="M147.06,379.48c-12.62,0-23.69-2.72-33.21-8.16-9.53-5.44-16.88-13.08-22.08-22.92s-7.79-21.31-7.79-34.42c0-8.66,1.33-17.13,3.99-25.42,2.66-8.29,6.68-15.83,12.06-22.64,5.38-6.8,12.12-12.21,20.22-16.24,8.1-4.02,17.53-6.03,28.3-6.03,4.08,0,8.35.37,12.8,1.11s8.81,1.86,13.08,3.34,8.13,3.28,11.6,5.38l-.74-8.54h11.5v42.68h-8.54c-.62-7.42-2.69-13.7-6.21-18.83-3.53-5.13-8.04-9.03-13.54-11.69-5.51-2.66-11.6-3.99-18.28-3.99s-12.52,1.46-17.91,4.36c-5.38,2.91-10.05,6.93-14.01,12.06-3.96,5.13-7.02,11.16-9.18,18.09-2.17,6.93-3.25,14.35-3.25,22.27,0,11.38,1.88,21.49,5.66,30.34,3.77,8.85,9.12,15.8,16.05,20.87,6.93,5.07,15.03,7.61,24.31,7.61,2.97,0,6.22-.28,9.74-.83s7.05-1.42,10.58-2.6c3.53-1.17,6.71-2.69,9.56-4.55v-20.78c0-3.09.03-6.15.09-9.18.06-3.03.09-5.84.09-8.44-1.98.12-4.21.25-6.68.37-2.48.12-4.64.25-6.49.37v-10.21h44.34v8.16c-2.97,0-5.35.68-7.14,2.04-1.79,1.36-3.09,3.06-3.9,5.1-.81,2.04-1.33,4.21-1.58,6.49-.25,2.29-.37,4.42-.37,6.4v28.95h-4.82c-2.6,0-5.63.4-9.09,1.21-3.46.81-7.36,2.01-11.69,3.62-3.84,1.36-8.23,2.47-13.17,3.34-4.95.86-9.71,1.3-14.29,1.3Z" style="fill: #30f; stroke-width: 0px;"/>
        <path d="M219.98,376.51v-8.16c5.07-1.11,9.34-3.46,12.8-7.05,3.46-3.59,7.36-8.41,11.69-14.47l23.38-32.47c-7.42-10.14-13.54-18.52-18.37-25.14-4.82-6.62-9.03-12.21-12.62-16.79-2.23-3.34-3.99-6.22-5.29-8.63s-2.44-4.85-3.43-7.33c-1.73.12-3.4.19-5.01.19s-3.22.06-4.82.19v-10.21h50.84v8.16l-6.12.19c-4.21.12-6.87.9-7.98,2.32-1.11,1.42-1.27,3.19-.46,5.29.8,2.1,2.01,4.33,3.62,6.68,2.35,3.59,5.38,7.92,9.09,12.99,3.71,5.07,7.61,10.45,11.69,16.14l16.51-23.75c3.09-4.08,5.84-7.76,8.26-11.04,2.41-3.28,4.55-5.78,6.4-7.51-2.35.12-4.89.25-7.61.37-2.72.12-5.2.25-7.42.37v-10.21h38.41v8.16c-3.59.5-6.99,1.92-10.21,4.27-3.22,2.35-6.28,5.26-9.18,8.72-2.91,3.46-5.78,7.17-8.63,11.13l-20.04,28.02c4.33,5.57,8.56,11.04,12.71,16.42,4.14,5.38,8.01,10.42,11.6,15.12,3.59,4.7,6.62,8.72,9.09,12.06,2.1,2.72,4.17,5.44,6.22,8.16,2.04,2.72,3.93,5.38,5.66,7.98,1.86-.12,3.53-.19,5.01-.19s3.03-.06,4.64-.19v10.21h-48.8v-8.16c4.7.12,7.79-.49,9.28-1.86,1.48-1.36,1.92-3.06,1.3-5.1-.62-2.04-1.73-4.11-3.34-6.22-2.97-3.96-6.59-8.63-10.85-14.01s-8.81-11.41-13.64-18.09c-2.97,4.21-5.91,8.44-8.81,12.71-2.91,4.27-5.84,8.63-8.81,13.08-2.35,3.34-4.58,6.49-6.68,9.46-2.1,2.97-4.39,5.88-6.87,8.72,2.35-.12,4.82-.25,7.42-.37,2.6-.12,5.01-.25,7.24-.37v10.21h-37.85Z" style="fill: #30f; stroke-width: 0px;"/>
      </g>
    </g>
  </g>
</svg>